<?xml version="1.0" encoding="UTF-8"?>
<svg width="512" height="512" viewBox="0 0 512 512" fill="none" xmlns="http://www.w3.org/2000/svg">
  <path d="M256 64C150.5 64 64 150.5 64 256C64 361.5 150.5 448 256 448C361.5 448 448 361.5 448 256C448 150.5 361.5 64 256 64Z" fill="#EA580C"/>
  <path d="M320 208C320 236.8 296.8 260 268 260C239.2 260 216 236.8 216 208C216 179.2 239.2 156 268 156C296.8 156 320 179.2 320 208Z" fill="white"/>
  <path d="M244 304C244 332.8 220.8 356 192 356C163.2 356 140 332.8 140 304C140 275.2 163.2 252 192 252C220.8 252 244 275.2 244 304Z" fill="white"/>
  <path d="M372 304C372 332.8 348.8 356 320 356C291.2 356 268 332.8 268 304C268 275.2 291.2 252 320 252C348.8 252 372 275.2 372 304Z" fill="white"/>
</svg>